#!OML:ASF H:\ManfredETheater\Project 1\Capture day 1\Session 1\subject.ASF
:FULLY-SPECIFIED
:DEGREES
247
root 1.0422 17.0848 28.3817 -165.353 -0.0390522 175.537
lowerback 8.04138 -1.48185 -4.59098
upperback -0.903212 -2.34112 1.95992
thorax -5.19582 -1.00128 4.92666
lowerneck -18.8475 -0.393218 -1.14257
upperneck 15.5267 -0.197507 0.137629
head 7.89986 -0.129099 0.210933
rclavicle 5.76476e-015 -1.43125e-014
rhumerus -40.5557 -11.9455 -74.8903
rradius 33.6215
rwrist 0.522452
rhand -18.926 -11.495
rfingers 7.12502
rthumb 7.37656 -41.3464
lclavicle 5.76476e-015 -1.43125e-014
lhumerus -32.1704 3.7269 86.7892
lradius 32.3323
lwrist -14.076
lhand -11.5002 9.77586
lfingers 7.12502
lthumb 14.5386 39.2464
rfemur -46.3978 -0.937514 14.5855
rtibia 38.0514
rfoot -7.62446 -3.10187
rtoes 6.31191
lfemur -3.19285 -4.82505 -25.1095
ltibia 29.4965
lfoot -15.0455 1.43494
ltoes -26.1376
248
root 1.06402 17.0908 28.2374 -165.355 -0.123293 175.663
lowerback 8.08182 -1.49666 -4.36742
upperback -0.903942 -2.339 2.0242
thorax -5.22535 -1.00564 4.86933
lowerneck -18.8602 -0.38965 -1.15331
upperneck 15.3986 -0.189063 0.115409
head 7.85923 -0.129014 0.20604
rclavicle 1.90833e-014 4.6118e-014
rhumerus -40.7229 -12.3299 -74.6081
rradius 33.3727
rwrist 0.642147
rhand -18.9573 -11.5603
rfingers 7.12502
rthumb 7.34641 -41.4128
lclavicle 1.90833e-014 4.6118e-014
lhumerus -32.3314 3.726 86.8291
lradius 32.8689
lwrist -13.7521
lhand -11.6407 9.81697
lfingers 7.12502
lthumb 14.4032 39.2972
rfemur -46.1189 -0.744035 14.7262
rtibia 38.5316
rfoot -8.23518 -3.4101
rtoes 5.5854
lfemur -3.04139 -4.96022 -24.8535
ltibia 29.9391
lfoot -14.2679 1.03372
ltoes -26.8288
249
root 1.08594 17.0991 28.0898 -165.344 -0.218117 175.78
lowerback 8.08672 -1.51763 -4.14241
upperback -0.904459 -2.34357 2.08737
thorax -5.23391 -1.01414 4.8092
lowerneck -18.865 -0.382409 -1.16145
upperneck 15.2681 -0.173507 0.0792239
head 7.81646 -0.126662 0.196968
rclavicle 1.09332e-014 -3.10104e-014
rhumerus -40.8799 -12.7073 -74.3314
rradius 33.1168
rwrist 0.745515
rhand -18.9889 -11.6301
rfingers 7.12502
rthumb 7.31582 -41.4837
lclavicle 1.09332e-014 -3.10104e-014
lhumerus -32.5131 3.74644 86.8696
lradius 33.4138
lwrist -13.374
lhand -11.7875 9.88715
lfingers 7.12502
lthumb 14.2617 39.3774
rfemur -45.7872 -0.593995 14.8767
rtibia 38.9283
rfoot -8.82458 -3.62668
rtoes 5.04195
lfemur -2.95863 -5.10168 -24.6021
ltibia 30.4598
lfoot -13.3739 0.607387
ltoes -27.452
250
root 1.10799 17.1097 27.9393 -165.322 -0.332869 175.894
lowerback 8.05751 -1.5468 -3.90924
upperback -0.907255 -2.35719 2.15147
thorax -5.22488 -1.02791 4.74501
lowerneck -18.8629 -0.372177 -1.16547
upperneck 15.1448 -0.151466 0.0264849
head 7.77485 -0.122435 0.182555
rclavicle -2.92213e-014 -1.66979e-014
rhumerus -41.024 -13.0668 -74.0654
rradius 32.8518
rwrist 0.833728
rhand -19.0211 -11.7363
rfingers 7.12502
rthumb 7.28481 -41.5909
lclavicle -2.92213e-014 -1.66979e-014
lhumerus -32.7135 3.76968 86.9165
lradius 33.9607
lwrist -12.9385
lhand -11.93 9.98951
lfingers 7.12502
lthumb 14.1245 39.4894
rfemur -45.3989 -0.484407 15.0423
rtibia 39.2414
rfoot -9.37582 -3.716
rtoes 4.88456
lfemur -2.95918 -5.26117 -24.3474
ltibia 31.073
lfoot -12.345 0.163114
ltoes -28.0051
251
root 1.1302 17.1229 27.7862 -165.28 -0.461418 176.019
lowerback 7.99655 -1.57907 -3.66017
upperback -0.917756 -2.37252 2.22152
thorax -5.20626 -1.04313 4.67708
lowerneck -18.8591 -0.359147 -1.16617
upperneck 15.039 -0.122995 -0.041571
head 7.73883 -0.116248 0.163349
rclavicle -2.5842e-015 3.33958e-014
rhumerus -41.1614 -13.3962 -73.8117
rradius 32.5853
rwrist 0.903672
rhand -19.0448 -11.8469
rfingers 7.12502
rthumb 7.26191 -41.7023
lclavicle -2.5842e-015 3.33958e-014
lhumerus -32.93 3.77666 86.9797
lradius 34.5014
lwrist -12.4552
lhand -12.0741 10.121
lfingers 7.12502
lthumb 13.9856 39.6306
rfemur -44.9661 -0.401919 15.2368
rtibia 39.4721
rfoot -9.89509 -3.69241
rtoes 5.07279
lfemur -3.0657 -5.43405 -24.0744
ltibia 31.7965
lfoot -11.1516 -0.308358
ltoes -28.4198
252
root 1.15264 17.1386 27.631 -165.224 -0.612308 176.165
lowerback 7.91276 -1.61425 -3.38447
upperback -0.936613 -2.38892 2.29953
thorax -5.18422 -1.05965 4.60178
lowerneck -18.8563 -0.346928 -1.16411
upperneck 14.9573 -0.0932081 -0.122372
head 7.71106 -0.110307 0.139686
rclavicle -4.53229e-014 5.56597e-015
rhumerus -41.2911 -13.6947 -73.5745
rradius 32.3169
rwrist 0.965085
rhand -19.0632 -11.9591
rfingers 7.12502
rthumb 7.24413 -41.8151
lclavicle -4.53229e-014 5.56597e-015
lhumerus -33.1543 3.75008 87.063
lradius 35.0285
lwrist -11.94
lhand -12.194 10.2781
lfingers 7.12502
lthumb 13.87 39.7955
rfemur -44.4881 -0.341631 15.4702
rtibia 39.6231
rfoot -10.4071 -3.61606
rtoes 5.41616
lfemur -3.29201 -5.62989 -23.7684
ltibia 32.6497
lfoot -9.76741 -0.800292
ltoes -28.6752
253
root 1.17525 17.1563 27.4743 -165.15 -0.776142 176.336
lowerback 7.81156 -1.64797 -3.0822
upperback -0.967818 -2.401 2.3872
thorax -5.1665 -1.07457 4.52071
lowerneck -18.851 -0.337772 -1.1663
upperneck 14.9038 -0.0642424 -0.210147
head 7.69229 -0.105445 0.114371
rclavicle 3.18055e-014 3.10104e-014
rhumerus -41.4225 -13.9394 -73.3605
rradius 32.0646
rwrist 1.01234
rhand -19.0689 -12.0766
rfingers 7.12502
rthumb 7.23868 -41.9328
lclavicle 3.18055e-014 3.10104e-014
lhumerus -33.382 3.67351 87.1729
lradius 35.5355
lwrist -11.4062
lhand -12.2936 10.4497
lfingers 7.12502
lthumb 13.7741 39.9737
rfemur -43.9756 -0.291688 15.7438
rtibia 39.6987
rfoot -10.9133 -3.5467
rtoes 5.81602
lfemur -3.65326 -5.8323 -23.4229
ltibia 33.6486
lfoot -8.17486 -1.32772
ltoes -28.7142
254
root 1.198 17.1757 27.3167 -165.061 -0.938238 176.53
lowerback 7.70206 -1.67197 -2.76146
upperback -1.01047 -2.39914 2.48041
thorax -5.15805 -1.08288 4.43344
lowerneck -18.8539 -0.334612 -1.16943
upperneck 14.8791 -0.0413854 -0.302635
head 7.68457 -0.103867 0.0869545
rclavicle -2.64384e-014 -5.40694e-014
rhumerus -41.5568 -14.1318 -73.1743
rradius 31.8361
rwrist 1.05017
rhand -19.0602 -12.1838
rfingers 7.12502
rthumb 7.24703 -42.0397
lclavicle -2.64384e-014 -5.40694e-014
lhumerus -33.6068 3.53323 87.3115
lradius 36.0268
lwrist -10.8814
lhand -12.3692 10.6164
lfingers 7.12502
lthumb 13.7012 40.1454
rfemur -43.4391 -0.240727 16.0496
rtibia 39.7052
rfoot -11.3988 -3.50446
rtoes 6.24582
lfemur -4.16073 -6.02525 -23.0445
ltibia 34.806
lfoot -6.36624 -1.89465
ltoes -28.4205
255
root 1.22075 17.1962 27.1588 -164.966 -1.09966 176.742
lowerback 7.59406 -1.68593 -2.42416
upperback -1.05982 -2.38356 2.57587
thorax -5.1593 -1.08487 4.33797
lowerneck -18.8591 -0.33939 -1.17825
upperneck 14.8724 -0.0280699 -0.390477
head 7.68328 -0.106602 0.0608883
rclavicle 1.07344e-014 1.98785e-014
rhumerus -41.697 -14.2661 -73.0233
rradius 31.647
rwrist 1.08422
rhand -19.0344 -12.2805
rfingers 7.12502
rthumb 7.27196 -42.1356
lclavicle 1.07344e-014 1.98785e-014
lhumerus -33.8241 3.31601 87.4799
lradius 36.5085
lwrist -10.3801
lhand -12.4087 10.7675
lfingers 7.12502
lthumb 13.6631 40.299
rfemur -42.8758 -0.187986 16.3804
rtibia 39.6502
rfoot -11.8554 -3.48641
rtoes 6.70232
lfemur -4.80821 -6.19961 -22.6357
ltibia 36.1295
lfoot -4.35902 -2.50911
ltoes -27.7579
256
root 1.24352 17.2171 27.0012 -164.872 -1.25319 176.967
lowerback 7.50105 -1.68606 -2.08153
upperback -1.11365 -2.35048 2.67132
thorax -5.17539 -1.07833 4.23845
lowerneck -18.8692 -0.35315 -1.19049
upperneck 14.8773 -0.0266371 -0.473013
head 7.68674 -0.114636 0.035718
rclavicle -9.74045e-015 1.19271e-014
rhumerus -41.847 -14.3357 -72.913
rradius 31.5118
rwrist 1.10664
rhand -18.9877 -12.3446
rfingers 7.12502
rthumb 7.31707 -42.198
lclavicle -9.74045e-015 1.19271e-014
lhumerus -34.0322 3.01788 87.6781
lradius 36.9907
lwrist -9.92005
lhand -12.4146 10.884
lfingers 7.12502
lthumb 13.6574 40.4159
rfemur -42.2886 -0.128862 16.7271
rtibia 39.5432
rfoot -12.2862 -3.47358
rtoes 7.17064
lfemur -5.59036 -6.33664 -22.2031
ltibia 37.6215
lfoot -2.18393 -3.17161
ltoes -26.665
257
root 1.26611 17.2379 26.8445 -164.786 -1.39564 177.2
lowerback 7.43454 -1.67237 -1.73866
upperback -1.17071 -2.30025 2.76587
thorax -5.21111 -1.06328 4.13734
lowerneck -18.873 -0.376974 -1.21121
upperneck 14.8835 -0.0382341 -0.546406
head 7.68961 -0.128392 0.0134123
rclavicle 4.77083e-015 -2.78299e-014
rhumerus -42.0103 -14.327 -72.8493
rradius 31.4427
rwrist 1.10842
rhand -18.9219 -12.3788
rfingers 7.12502
rthumb 7.38056 -42.2301
lclavicle 4.77083e-015 -2.78299e-014
lhumerus -34.2411 2.64667 87.9045
lradius 37.4905
lwrist -9.51412
lhand -12.3863 10.9546
lfingers 7.12502
lthumb 13.6847 40.4847
rfemur -41.6772 -0.0642062 17.0844
rtibia 39.3938
rfoot -12.6995 -3.44591
rtoes 7.64155
lfemur -6.49337 -6.43408 -21.7551
ltibia 39.2781
lfoot 0.10585 -3.86369
ltoes -25.1107
258
root 1.28834 17.258 26.689 -164.717 -1.52929 177.438
lowerback 7.40072 -1.64595 -1.39706
upperback -1.22358 -2.23425 2.85618
thorax -5.26195 -1.04065 4.03216
lowerneck -18.8744 -0.409169 -1.23247
upperneck 14.8808 -0.0629276 -0.611599
head 7.68916 -0.147611 -0.00765501
rclavicle -6.16232e-015 -1.19271e-014
rhumerus -42.1732 -14.2543 -72.8333
rradius 31.4313
rwrist 1.09405
rhand -18.838 -12.3832
rfingers 7.12502
rthumb 7.46155 -42.2316
lclavicle -6.16232e-015 -1.19271e-014
lhumerus -34.446 2.20444 88.1544
lradius 38.0191
lwrist -9.16845
lhand -12.3129 10.9802
lfingers 7.12502
lthumb 13.7554 40.5055
rfemur -41.0361 0.00228351 17.4482
rtibia 39.2117
rfoot -13.1064 -3.39957
rtoes 8.14221
lfemur -7.50038 -6.48957 -21.2987
ltibia 41.0896
lfoot 2.44629 -4.56783
ltoes -23.0817
259
root 1.31008 17.277 26.5351 -164.675 -1.6554 177.683
lowerback 7.40857 -1.60696 -1.05461
upperback -1.26557 -2.1522 2.94176
thorax -5.32591 -1.01055 3.9212
lowerneck -18.8824 -0.450313 -1.25228
upperneck 14.8658 -0.102321 -0.667877
head 7.68575 -0.172956 -0.0277809
rclavicle 1.19271e-015 3.97569e-015
rhumerus -42.3304 -14.1186 -72.8691
rradius 31.4829
rwrist 1.04769
rhand -18.746 -12.3533
rfingers 7.12502
rthumb 7.55037 -42.1985
lclavicle 1.19271e-015 3.97569e-015
lhumerus -34.6441 1.69857 88.4249
lradius 38.5844
lwrist -8.8849
lhand -12.2125 10.9456
lfingers 7.12502
lthumb 13.8523 40.4643
rfemur -40.3593 0.0648524 17.8219
rtibia 39.0043
rfoot -13.5005 -3.34169
rtoes 8.6172
lfemur -8.58997 -6.50517 -20.8375
ltibia 43.0395
lfoot 4.77533 -5.26113
ltoes -20.5838
